<?xml version="1.0" encoding="UTF-8"?>
<!-- Generator: Adobe Illustrator 24.2.0, SVG Export Plug-In . SVG Version: 6.00 Build 0)  -->
<svg version="1.1" id="Layer_1" xmlns="http://www.w3.org/2000/svg" xmlns:xlink="http://www.w3.org/1999/xlink" x="0px" y="0px" viewBox="0 0 36 36" style="enable-background:new 0 0 36 36;" xml:space="preserve">
<style type="text/css">
	.st0{fill:#B01921;}
	.st1{fill:none;}
</style>
<g>
	<path class="st0" d="M36,18c0-9.9-8.1-18-18-18S0,8.1,0,18c0,9,6.6,16.4,15.2,17.8V23.2h-4.6V18h4.6v-4c0-4.5,2.7-7,6.8-7   c2,0,4,0.4,4,0.4v4.4h-2.3c-2.2,0-2.9,1.4-2.9,2.8V18h5L25,23.2h-4.2v12.6C29.4,34.4,36,27,36,18z"/>
	<path class="st1" d="M25,23.2l0.8-5.2h-5v-3.4c0-1.4,0.7-2.8,2.9-2.8H26V7.4C26,7.4,24,7,22,7c-4.1,0-6.8,2.5-6.8,7v4h-4.6v5.2h4.6   v12.6C16.1,35.9,17,36,18,36s1.9-0.1,2.8-0.2V23.2H25z"/>
</g>
</svg>