<svg id="Icon_Instagram" data-name="Icon Instagram" xmlns="http://www.w3.org/2000/svg" width="35" height="35" viewBox="0 0 35 35">
  <path id="Pfad_53" data-name="Pfad 53" d="M29.808,0H5.192A5.206,5.206,0,0,0,0,5.192V29.808A5.206,5.206,0,0,0,5.192,35H29.808A5.206,5.206,0,0,0,35,29.808V5.192A5.206,5.206,0,0,0,29.808,0Zm2.275,29.808a2.275,2.275,0,0,1-2.275,2.275H5.192a2.275,2.275,0,0,1-2.275-2.275V5.192A2.275,2.275,0,0,1,5.192,2.917H29.808a2.275,2.275,0,0,1,2.275,2.275Z" fill="#b01921"/>
  <path id="Pfad_54" data-name="Pfad 54" d="M14.75,6a8.75,8.75,0,1,0,8.75,8.75A8.75,8.75,0,0,0,14.75,6Zm0,14.583a5.833,5.833,0,1,1,5.833-5.833A5.833,5.833,0,0,1,14.75,20.583Z" transform="translate(2.75 2.75)" fill="#b01921"/>
  <circle id="Ellipse_4" data-name="Ellipse 4" cx="2" cy="2" r="2" transform="translate(25 6.449)" fill="#b01921"/>
</svg>